<svg width="32" height="36" viewBox="0 0 32 36" fill="none" xmlns="http://www.w3.org/2000/svg">
<path fill-rule="evenodd" clip-rule="evenodd" d="M16.4712 0.873268C16.0504 0.78671 15.6163 0.78671 15.1954 0.873268C14.7089 0.973327 14.2741 1.21688 13.9284 1.4105L13.8341 1.46313L2.11791 7.97219C2.08552 7.99019 2.05214 8.00852 2.01794 8.02735C1.65199 8.22893 1.19188 8.48235 0.838528 8.86577C0.533031 9.19735 0.301841 9.59019 0.160415 10.0183C-0.00316372 10.5134 -0.00124989 11.0387 0.000272114 11.4564C0.00041439 11.4955 0.000553166 11.5336 0.000553166 11.5706V24.4223C0.000553166 24.4593 0.00041439 24.4974 0.000272114 24.5364C-0.00124989 24.9543 -0.00316374 25.4795 0.160416 25.9746C0.301842 26.4027 0.533034 26.7956 0.838528 27.1271C1.19188 27.5105 1.652 27.7639 2.01794 27.9655C2.05214 27.9844 2.08552 28.0028 2.11791 28.0208L13.8341 34.5298L13.9284 34.5824C14.2741 34.776 14.7089 35.0196 15.1954 35.1196C15.6163 35.2062 16.0504 35.2062 16.4712 35.1196C16.9577 35.0196 17.3926 34.776 17.7382 34.5824L17.8325 34.5298L29.5487 28.0208C29.5631 28.0128 29.5776 28.0048 29.5922 27.9966C29.6107 27.9864 29.6296 27.976 29.6486 27.9655C30.0146 27.7639 30.4747 27.5105 30.8281 27.1271C31.1336 26.7956 31.3648 26.4027 31.5062 25.9746C31.6698 25.4795 31.6679 24.9543 31.6663 24.5364C31.6662 24.4974 31.6661 24.4593 31.6661 24.4223V11.5706C31.6661 11.5336 31.6662 11.4955 31.6663 11.4564C31.6679 11.0387 31.6698 10.5134 31.5062 10.0183C31.3648 9.59019 31.1336 9.19727 30.8281 8.86577C30.4747 8.48235 30.0146 8.22893 29.6486 8.02735L29.6474 8.02668C29.6136 8.0081 29.5806 7.98994 29.5487 7.97219L17.8325 1.46313L17.7382 1.41049C17.3926 1.21687 16.9577 0.973327 16.4712 0.873268ZM15.372 4.2312C15.6119 4.0979 15.7344 4.03055 15.8257 3.98649L15.8333 3.98286L15.8409 3.98649C15.9322 4.03055 16.0547 4.0979 16.2946 4.2312L26.8226 10.08L15.8332 16.1852L4.84401 10.0801L15.372 4.2312ZM3.1671 12.7709L14.25 18.928L14.2501 31.1384L3.65573 25.2527C3.40248 25.1119 3.27318 25.0394 3.18246 24.9816L3.1748 24.9767L3.17423 24.9676C3.16776 24.8603 3.1671 24.7119 3.1671 24.4223V12.7709Z" fill="#8E9098"/>
</svg>
