<svg width="24" height="25" viewBox="0 0 24 25" fill="none" xmlns="http://www.w3.org/2000/svg">
<path d="M8.49542 12.3813C8.01567 12.1077 7.40496 12.2748 7.13135 12.7546C6.85773 13.2343 7.02484 13.845 7.50458 14.1187L8.49542 12.3813ZM10.4 15.5L9.5418 16.0133C9.73249 16.3321 10.0842 16.519 10.4551 16.4985C10.826 16.478 11.155 16.2536 11.3095 15.9158L10.4 15.5ZM16.4798 9.37737C16.9644 9.11238 17.1424 8.50475 16.8774 8.02019C16.6124 7.53563 16.0047 7.35764 15.5202 7.62263L16.4798 9.37737ZM23 12.5C23 6.42487 18.0751 1.5 12 1.5V3.5C16.9706 3.5 21 7.52944 21 12.5H23ZM12 1.5C5.92487 1.5 1 6.42487 1 12.5H3C3 7.52944 7.02944 3.5 12 3.5V1.5ZM1 12.5C1 18.5751 5.92487 23.5 12 23.5V21.5C7.02944 21.5 3 17.4706 3 12.5H1ZM12 23.5C18.0751 23.5 23 18.5751 23 12.5H21C21 17.4706 16.9706 21.5 12 21.5V23.5ZM8 13.25C7.50458 14.1187 7.50441 14.1186 7.50425 14.1185C7.5042 14.1184 7.50404 14.1183 7.50395 14.1183C7.50376 14.1182 7.5036 14.1181 7.50346 14.118C7.50318 14.1179 7.50299 14.1177 7.5029 14.1177C7.50271 14.1176 7.5029 14.1177 7.50345 14.118C7.50456 14.1187 7.50711 14.1201 7.51105 14.1225C7.51892 14.1271 7.5323 14.135 7.5506 14.1462C7.58726 14.1685 7.64341 14.2034 7.71454 14.25C7.85735 14.3435 8.05747 14.4821 8.2798 14.6579C8.73735 15.0196 9.23109 15.4939 9.5418 16.0133L11.2582 14.9867C10.7689 14.1687 10.0626 13.5179 9.5202 13.089C9.24253 12.8695 8.99265 12.6963 8.81046 12.577C8.71909 12.5171 8.64399 12.4703 8.59002 12.4375C8.56301 12.421 8.54123 12.4081 8.52528 12.3987C8.5173 12.394 8.51078 12.3902 8.50578 12.3873C8.50328 12.3859 8.50116 12.3846 8.49943 12.3836C8.49856 12.3831 8.4978 12.3827 8.49713 12.3823C8.49679 12.3821 8.49648 12.382 8.4962 12.3818C8.49606 12.3817 8.49586 12.3816 8.49579 12.3816C8.4956 12.3814 8.49542 12.3813 8 13.25ZM10.4 15.5C11.3095 15.9158 11.3094 15.9159 11.3093 15.916C11.3093 15.9161 11.3093 15.9162 11.3093 15.9162C11.3092 15.9163 11.3093 15.9162 11.3093 15.9162C11.3094 15.916 11.3096 15.9155 11.31 15.9147C11.3107 15.913 11.312 15.9102 11.3139 15.9061C11.3177 15.898 11.3237 15.8851 11.332 15.8676C11.3485 15.8326 11.3739 15.7795 11.4077 15.7103C11.4754 15.5719 11.5768 15.3695 11.7088 15.1202C11.9733 14.6205 12.3579 13.9371 12.8373 13.203C13.8206 11.6973 15.1085 10.1273 16.4798 9.37737L15.5202 7.62263C13.6915 8.62267 12.1794 10.5527 11.1627 12.1095C10.6421 12.9067 10.2267 13.6452 9.94118 14.1845C9.79817 14.4547 9.68709 14.6762 9.61104 14.8317C9.57301 14.9095 9.54369 14.9708 9.52348 15.0136C9.51338 15.035 9.50555 15.0518 9.50004 15.0636C9.49729 15.0696 9.49511 15.0743 9.49352 15.0777C9.49273 15.0794 9.49208 15.0808 9.49158 15.0819C9.49133 15.0825 9.49112 15.0829 9.49094 15.0833C9.49086 15.0835 9.49075 15.0837 9.49071 15.0838C9.49061 15.0841 9.49053 15.0842 10.4 15.5Z" fill="#E3954C"/>
</svg>
