<svg width="22" height="22" viewBox="0 0 22 22" fill="none" xmlns="http://www.w3.org/2000/svg">
<path d="M16.5078 6.5C17.0601 6.5 17.5078 6.05228 17.5078 5.5C17.5078 4.94772 17.0601 4.5 16.5078 4.5V6.5ZM16.4988 4.5C15.9465 4.5 15.4988 4.94772 15.4988 5.5C15.4988 6.05228 15.9465 6.5 16.4988 6.5V4.5ZM11 19.5C8.73256 19.5 7.13258 19.4979 5.92121 19.335C4.7386 19.176 4.0772 18.8805 3.59835 18.4016L2.18414 19.8159C3.09653 20.7283 4.25033 21.1284 5.65471 21.3172C7.03032 21.5021 8.7891 21.5 11 21.5V19.5ZM0.5 11C0.5 13.2109 0.497876 14.9697 0.682823 16.3453C0.871636 17.7497 1.27175 18.9035 2.18414 19.8159L3.59835 18.4016C3.1195 17.9228 2.82398 17.2614 2.66499 16.0788C2.50212 14.8674 2.5 13.2674 2.5 11H0.5ZM19.5 11C19.5 13.2674 19.4979 14.8674 19.335 16.0788C19.176 17.2614 18.8805 17.9228 18.4016 18.4016L19.8159 19.8159C20.7283 18.9035 21.1284 17.7497 21.3172 16.3453C21.5021 14.9697 21.5 13.2109 21.5 11H19.5ZM11 21.5C13.2109 21.5 14.9697 21.5021 16.3453 21.3172C17.7497 21.1284 18.9035 20.7283 19.8159 19.8159L18.4016 18.4016C17.9228 18.8805 17.2614 19.176 16.0788 19.335C14.8674 19.4979 13.2674 19.5 11 19.5V21.5ZM11 2.5C13.2674 2.5 14.8674 2.50212 16.0788 2.66499C17.2614 2.82398 17.9228 3.1195 18.4016 3.59835L19.8159 2.18414C18.9035 1.27175 17.7497 0.871636 16.3453 0.682823C14.9697 0.497876 13.2109 0.5 11 0.5V2.5ZM21.5 11C21.5 8.7891 21.5021 7.03032 21.3172 5.65471C21.1284 4.25033 20.7283 3.09653 19.8159 2.18414L18.4016 3.59835C18.8805 4.0772 19.176 4.7386 19.335 5.92121C19.4979 7.13258 19.5 8.73256 19.5 11H21.5ZM11 0.5C8.7891 0.5 7.03032 0.497876 5.65471 0.682823C4.25033 0.871636 3.09653 1.27175 2.18414 2.18414L3.59835 3.59835C4.0772 3.1195 4.7386 2.82398 5.92121 2.66499C7.13258 2.50212 8.73256 2.5 11 2.5V0.5ZM2.5 11C2.5 8.73256 2.50212 7.13258 2.66499 5.92121C2.82398 4.7386 3.1195 4.0772 3.59835 3.59835L2.18414 2.18414C1.27175 3.09653 0.871636 4.25033 0.682823 5.65471C0.497876 7.03032 0.5 8.7891 0.5 11H2.5ZM14.5 11C14.5 12.933 12.933 14.5 11 14.5V16.5C14.0376 16.5 16.5 14.0376 16.5 11H14.5ZM11 14.5C9.067 14.5 7.5 12.933 7.5 11H5.5C5.5 14.0376 7.96243 16.5 11 16.5V14.5ZM7.5 11C7.5 9.067 9.067 7.5 11 7.5V5.5C7.96243 5.5 5.5 7.96243 5.5 11H7.5ZM11 7.5C12.933 7.5 14.5 9.067 14.5 11H16.5C16.5 7.96243 14.0376 5.5 11 5.5V7.5ZM16.5078 4.5H16.4988V6.5H16.5078V4.5Z" fill="#E3954C"/>
</svg>
