<svg width="37" height="38" viewBox="0 0 37 38" fill="none" xmlns="http://www.w3.org/2000/svg">
<path d="M10.0268 2.73773L14.3172 18.7497V1.1458C14.6575 1.06641 15.0013 0.996493 15.3485 0.936343V18.7514L20.1742 0.741943C20.5219 0.773427 20.8668 0.814627 21.2087 0.865252L16.3442 19.0197L26.0136 2.27198C26.3286 2.41369 26.6388 2.56404 26.9441 2.72272L17.2387 19.533L31.0944 5.67729C31.3442 5.91351 31.5873 6.15669 31.8236 6.40652L17.9658 20.2642L34.7781 10.5577C34.9367 10.863 35.0871 11.1732 35.2287 11.4883L18.4851 21.1552L36.6347 16.2921C36.6852 16.634 36.7264 16.9789 36.7579 17.3267L18.7487 22.1522H36.5632C36.5031 22.4994 36.4332 22.8433 36.3537 23.1835H18.7459L34.7611 27.4747C34.5966 27.7897 34.4232 28.0992 34.2413 28.4031L18.4836 24.1808L31.6449 31.7795C31.3957 32.0357 31.1392 32.2847 30.8755 32.5261L17.9691 25.0746L27.7352 34.8407C27.4262 35.0212 27.1116 35.1928 26.7915 35.3554L17.2388 25.8027L23.4978 36.6437C23.1552 36.7406 22.8084 36.8277 22.4579 36.9048L16.3448 26.3167L19.2922 37.3164C19.0295 37.3276 18.7653 37.3332 18.4999 37.3332C18.4092 37.3332 18.3188 37.3326 18.2285 37.3312L15.3485 26.5828V37.0634C15.0013 37.0032 14.6575 36.9333 14.3172 36.8539V26.5846L11.7778 36.0617C11.454 35.934 11.1346 35.7973 10.82 35.652L13.3207 26.3191L8.62633 34.45C8.33572 34.2639 8.05069 34.0698 7.77157 33.8681L12.4291 25.801L5.90655 32.3236C5.65673 32.0873 5.41355 31.8442 5.17732 31.5944L11.6977 25.0739L3.63306 29.7301C3.43126 29.451 3.23713 29.166 3.05097 28.8753L11.1857 24.1787L1.84823 26.6807C1.7029 26.3662 1.56621 26.0467 1.43847 25.7229L10.9156 23.1835H0.646072C0.566664 22.8433 0.496729 22.4994 0.43656 22.1522H10.9128L0.168563 19.2733C0.167232 19.1823 0.166565 19.0912 0.166565 18.9998C0.166565 18.7351 0.172177 18.4717 0.183289 18.2097L11.1842 21.1573L0.594583 15.0434C0.671692 14.6928 0.758832 14.3461 0.855687 14.0033L11.7011 20.2649L2.14435 10.7082C2.30693 10.3882 2.47864 10.0735 2.65912 9.76457L12.4292 19.5347L4.9747 6.62309C5.21608 6.35946 5.46507 6.1029 5.72132 5.85378L13.3214 19.0175L9.0985 3.25734C9.40233 3.07548 9.71192 2.90216 10.0268 2.73773Z" fill="#8E9098"/>
</svg>
